<?xml version="1.0" encoding="UTF-8" standalone="no"?>
<svg
   viewBox="0 0 512 512"
   stroke="gray"
   fill="white"
   id="svg2"
   sodipodi:docname="favicon-inkscape.svg"
   inkscape:version="1.3.2 (091e20ef0f, 2023-11-25, custom)"
   inkscape:export-filename="favicon.svg"
   inkscape:export-xdpi="96"
   inkscape:export-ydpi="96"
   version="1.1"
   xmlns:inkscape="http://www.inkscape.org/namespaces/inkscape"
   xmlns:sodipodi="http://sodipodi.sourceforge.net/DTD/sodipodi-0.dtd"
   xmlns="http://www.w3.org/2000/svg"
   xmlns:svg="http://www.w3.org/2000/svg">
  <defs
     id="defs2">
    <inkscape:path-effect
       effect="mirror_symmetry"
       start_point="264.0602,104.88011"
       end_point="264.0602,433.46207"
       center_point="264.0602,269.17109"
       id="path-effect4"
       is_visible="true"
       lpeversion="1.2"
       lpesatellites=""
       mode="free"
       discard_orig_path="false"
       fuse_paths="false"
       oposite_fuse="false"
       split_items="false"
       split_open="false"
       link_styles="false" />
  </defs>
  <sodipodi:namedview
     id="namedview2"
     pagecolor="#ffffff"
     bordercolor="#000000"
     borderopacity="0.25"
     inkscape:showpageshadow="2"
     inkscape:pageopacity="0.0"
     inkscape:pagecheckerboard="true"
     inkscape:deskcolor="#d1d1d1"
     showgrid="false"
     inkscape:zoom="1.6959514"
     inkscape:cx="215.21843"
     inkscape:cy="228.1905"
     inkscape:window-width="2552"
     inkscape:window-height="1410"
     inkscape:window-x="2560"
     inkscape:window-y="22"
     inkscape:window-maximized="1"
     inkscape:current-layer="svg2" />
  <g
     id="g4"
     inkscape:label="left"
     inkscape:path-effect="#path-effect4"
     transform="matrix(0.96047333,0,0,1.1344002,2.3772204,-48.686818)"
     style="stroke-width:10.3995;stroke-dasharray:none">
    <path
       id="path3"
       inkscape:transform-center-x="7.1065626"
       inkscape:transform-center-y="8.8855318"
       d="m 53.588765,142.64427 33.878631,0.94674 -44.151602,247.43182 221.150416,-21.01557 -0.45287,37.6929 -259.4745632,8.92915 z m 420.942865,0 -33.87863,0.94674 44.15161,247.43182 -221.15042,-21.01557 0.45287,37.6929 259.47456,8.92915 z"
       sodipodi:nodetypes="ccccccc"
       inkscape:label="cover"
       inkscape:original-d="m 53.588765,142.64427 33.878631,0.94674 -44.151602,247.43182 221.150416,-21.01557 -0.45287,37.6929 -259.4745632,8.92915 z"
       style="fill:#0b8dc4;stroke-width:5.19976;stroke-dasharray:none" />
    <path
       d="m 265.70526,364.74181 c -9.37683,6.29814 -5.95066,12.01534 -20.82731,11.61482 C 164.544,373.95356 86.689495,392.77758 44.043079,387.17044 l -1.362712,-25.76463 c 99.252273,-19.49647 187.681763,-32.28072 223.024893,3.336 z m -3.29012,0 c 9.37683,6.29814 5.95066,12.01534 20.82731,11.61482 80.33395,-2.40307 158.18846,16.42095 200.83487,10.81381 l 1.36271,-25.76463 c -99.25227,-19.49647 -187.68176,-32.28072 -223.02489,3.336 z"
       id="path1"
       sodipodi:nodetypes="ccccc"
       inkscape:label="pages"
       inkscape:original-d="m 265.70526,364.74181 c -9.37683,6.29814 -5.95066,12.01534 -20.82731,11.61482 C 164.544,373.95356 86.689495,392.77758 44.043079,387.17044 l -1.362712,-25.76463 c 99.252273,-19.49647 187.681763,-32.28072 223.024893,3.336 z"
       style="stroke-width:10.3995;stroke-dasharray:none" />
    <path
       d="M 260.33097,362.31404 C 171.47215,313.54961 95.93383,376.24784 42.716188,362.9915 51.992659,336.95224 82.751482,171.24785 88.122071,144.26172 141.33971,148.99613 167.70442,91.709762 259.00442,147.5758 Z m 7.45846,0 c 88.85882,-48.76443 164.39714,13.9338 217.61478,0.67746 -9.27647,-26.03926 -40.03529,-191.74365 -45.40588,-218.72978 -53.21764,4.73441 -79.58235,-52.551958 -170.88235,3.31408 z"
       id="path2"
       sodipodi:nodetypes="ccccc"
       inkscape:label="top"
       inkscape:original-d="M 260.33097,362.31404 C 171.47215,313.54961 95.93383,376.24784 42.716188,362.9915 51.992659,336.95224 82.751482,171.24785 88.122071,144.26172 141.33971,148.99613 167.70442,91.709762 259.00442,147.5758 Z"
       style="stroke-width:10.3995;stroke-dasharray:none" />
  </g>
</svg>
